<mxfile host="app.diagrams.net" modified="2022-08-24T10:07:58.066Z" agent="5.0 (Macintosh; Intel Mac OS X 10_15_7) AppleWebKit/537.36 (KHTML, like Gecko) Chrome/104.0.0.0 Safari/537.36" etag="Ttjq5Ooq-kjNQQkQNCbQ" version="20.2.6" type="github">
  <diagram id="ThPqZ3XuMWu1pGZ1OLbE" name="第 1 页">
    <mxGraphModel dx="1426" dy="623" grid="1" gridSize="10" guides="1" tooltips="1" connect="1" arrows="1" fold="1" page="1" pageScale="1" pageWidth="827" pageHeight="1169" math="0" shadow="0">
      <root>
        <mxCell id="0" />
        <mxCell id="1" parent="0" />
        <mxCell id="TfNDDdNWFm4lYkEGt4rj-1" value="&lt;span style=&quot;font-size: 24px;&quot;&gt;产品链接&lt;/span&gt;" style="rounded=0;whiteSpace=wrap;html=1;strokeColor=#97D077;" vertex="1" parent="1">
          <mxGeometry x="350" y="280" width="120" height="50" as="geometry" />
        </mxCell>
        <mxCell id="TfNDDdNWFm4lYkEGt4rj-2" value="&lt;span style=&quot;font-size: 24px;&quot;&gt;备注&lt;/span&gt;" style="ellipse;whiteSpace=wrap;html=1;strokeColor=#97D077;" vertex="1" parent="1">
          <mxGeometry x="100" y="260" width="130" height="50" as="geometry" />
        </mxCell>
        <mxCell id="TfNDDdNWFm4lYkEGt4rj-3" value="&lt;span style=&quot;font-size: 24px;&quot;&gt;分配时间&lt;/span&gt;" style="ellipse;whiteSpace=wrap;html=1;strokeColor=#97D077;" vertex="1" parent="1">
          <mxGeometry x="160" y="370" width="130" height="50" as="geometry" />
        </mxCell>
        <mxCell id="TfNDDdNWFm4lYkEGt4rj-4" value="&lt;span style=&quot;font-size: 24px;&quot;&gt;产品id&lt;/span&gt;" style="ellipse;whiteSpace=wrap;html=1;strokeColor=#97D077;" vertex="1" parent="1">
          <mxGeometry x="210" y="150" width="130" height="50" as="geometry" />
        </mxCell>
        <mxCell id="TfNDDdNWFm4lYkEGt4rj-5" value="&lt;span style=&quot;font-size: 24px;&quot;&gt;用户id&lt;/span&gt;" style="ellipse;whiteSpace=wrap;html=1;strokeColor=#97D077;" vertex="1" parent="1">
          <mxGeometry x="430" y="150" width="130" height="50" as="geometry" />
        </mxCell>
        <mxCell id="TfNDDdNWFm4lYkEGt4rj-6" value="&lt;span style=&quot;font-size: 24px;&quot;&gt;链接编号&lt;/span&gt;" style="ellipse;whiteSpace=wrap;html=1;strokeColor=#97D077;" vertex="1" parent="1">
          <mxGeometry x="590" y="260" width="130" height="50" as="geometry" />
        </mxCell>
        <mxCell id="TfNDDdNWFm4lYkEGt4rj-7" value="&lt;span style=&quot;font-size: 24px;&quot;&gt;链接别名&lt;/span&gt;" style="ellipse;whiteSpace=wrap;html=1;strokeColor=#97D077;" vertex="1" parent="1">
          <mxGeometry x="550" y="370" width="130" height="50" as="geometry" />
        </mxCell>
        <mxCell id="TfNDDdNWFm4lYkEGt4rj-8" value="&lt;span style=&quot;font-size: 24px;&quot;&gt;状态&lt;/span&gt;" style="ellipse;whiteSpace=wrap;html=1;strokeColor=#97D077;" vertex="1" parent="1">
          <mxGeometry x="350" y="420" width="130" height="50" as="geometry" />
        </mxCell>
        <mxCell id="TfNDDdNWFm4lYkEGt4rj-9" style="edgeStyle=orthogonalEdgeStyle;rounded=0;orthogonalLoop=1;jettySize=auto;html=1;exitX=0.5;exitY=1;exitDx=0;exitDy=0;" edge="1" parent="1" source="TfNDDdNWFm4lYkEGt4rj-7" target="TfNDDdNWFm4lYkEGt4rj-7">
          <mxGeometry relative="1" as="geometry" />
        </mxCell>
        <mxCell id="TfNDDdNWFm4lYkEGt4rj-10" value="" style="endArrow=classic;html=1;rounded=0;strokeColor=#3399FF;entryX=0.5;entryY=0;entryDx=0;entryDy=0;exitX=0.5;exitY=1;exitDx=0;exitDy=0;" edge="1" parent="1" source="TfNDDdNWFm4lYkEGt4rj-1" target="TfNDDdNWFm4lYkEGt4rj-8">
          <mxGeometry width="50" height="50" relative="1" as="geometry">
            <mxPoint x="390" y="350" as="sourcePoint" />
            <mxPoint x="440" y="300" as="targetPoint" />
          </mxGeometry>
        </mxCell>
        <mxCell id="TfNDDdNWFm4lYkEGt4rj-12" value="" style="endArrow=classic;html=1;rounded=0;strokeColor=#3399FF;exitX=0.75;exitY=0;exitDx=0;exitDy=0;" edge="1" parent="1" source="TfNDDdNWFm4lYkEGt4rj-1" target="TfNDDdNWFm4lYkEGt4rj-5">
          <mxGeometry width="50" height="50" relative="1" as="geometry">
            <mxPoint x="420" y="340" as="sourcePoint" />
            <mxPoint x="425" y="430" as="targetPoint" />
          </mxGeometry>
        </mxCell>
        <mxCell id="TfNDDdNWFm4lYkEGt4rj-13" value="" style="endArrow=classic;html=1;rounded=0;strokeColor=#3399FF;entryX=0.031;entryY=0.68;entryDx=0;entryDy=0;exitX=1;exitY=0.5;exitDx=0;exitDy=0;entryPerimeter=0;" edge="1" parent="1" source="TfNDDdNWFm4lYkEGt4rj-1" target="TfNDDdNWFm4lYkEGt4rj-6">
          <mxGeometry width="50" height="50" relative="1" as="geometry">
            <mxPoint x="430" y="350" as="sourcePoint" />
            <mxPoint x="435" y="440" as="targetPoint" />
          </mxGeometry>
        </mxCell>
        <mxCell id="TfNDDdNWFm4lYkEGt4rj-14" value="" style="endArrow=classic;html=1;rounded=0;strokeColor=#3399FF;entryX=0;entryY=0.5;entryDx=0;entryDy=0;exitX=0.75;exitY=1;exitDx=0;exitDy=0;" edge="1" parent="1" source="TfNDDdNWFm4lYkEGt4rj-1" target="TfNDDdNWFm4lYkEGt4rj-7">
          <mxGeometry width="50" height="50" relative="1" as="geometry">
            <mxPoint x="440" y="360" as="sourcePoint" />
            <mxPoint x="445" y="450" as="targetPoint" />
          </mxGeometry>
        </mxCell>
        <mxCell id="TfNDDdNWFm4lYkEGt4rj-15" value="" style="endArrow=classic;html=1;rounded=0;strokeColor=#3399FF;exitX=0.25;exitY=0;exitDx=0;exitDy=0;" edge="1" parent="1" source="TfNDDdNWFm4lYkEGt4rj-1" target="TfNDDdNWFm4lYkEGt4rj-4">
          <mxGeometry width="50" height="50" relative="1" as="geometry">
            <mxPoint x="450" y="370" as="sourcePoint" />
            <mxPoint x="455" y="460" as="targetPoint" />
          </mxGeometry>
        </mxCell>
        <mxCell id="TfNDDdNWFm4lYkEGt4rj-16" value="" style="endArrow=classic;html=1;rounded=0;strokeColor=#3399FF;entryX=1;entryY=0.5;entryDx=0;entryDy=0;exitX=0;exitY=0.5;exitDx=0;exitDy=0;" edge="1" parent="1" source="TfNDDdNWFm4lYkEGt4rj-1" target="TfNDDdNWFm4lYkEGt4rj-2">
          <mxGeometry width="50" height="50" relative="1" as="geometry">
            <mxPoint x="460" y="380" as="sourcePoint" />
            <mxPoint x="465" y="470" as="targetPoint" />
          </mxGeometry>
        </mxCell>
        <mxCell id="TfNDDdNWFm4lYkEGt4rj-17" value="" style="endArrow=classic;html=1;rounded=0;strokeColor=#3399FF;entryX=1;entryY=0.5;entryDx=0;entryDy=0;exitX=0.183;exitY=1.06;exitDx=0;exitDy=0;exitPerimeter=0;" edge="1" parent="1" source="TfNDDdNWFm4lYkEGt4rj-1" target="TfNDDdNWFm4lYkEGt4rj-3">
          <mxGeometry width="50" height="50" relative="1" as="geometry">
            <mxPoint x="470" y="390" as="sourcePoint" />
            <mxPoint x="475" y="480" as="targetPoint" />
          </mxGeometry>
        </mxCell>
      </root>
    </mxGraphModel>
  </diagram>
</mxfile>
